# xmcd CD database file
#
# Track frame offsets:
#	150
#	16030
#	39528
#	55355
#	72150
#	86221
#	102935
#	122492
#	140738
#	162815
#
# Disc length: 2450 seconds
#
# Revision: 0
# Processed by: cddbd v1.5PL3 Copyright (c) Steve Scherf et al.
# Submitted via: CDex 1.50beta9
#
DISCID=8209900a
DTITLE=cune - ナナイロスマイル
DYEAR=2004
DGENRE=Rock
TTITLE0=東京
TTITLE1=カノン
TTITLE2=ピクニック
TTITLE3=LION SEVENTEEN (album version)
TTITLE4=Dramatic Exotic Automatic
TTITLE5=Party Boy, Party Girl
TTITLE6=そばにいてよ
TTITLE7=SQUALL
TTITLE8=青空
TTITLE9=暁
EXTD=YEAR: 2004
EXTT0=
EXTT1=
EXTT2=
EXTT3=
EXTT4=
EXTT5=
EXTT6=
EXTT7=
EXTT8=
EXTT9=
PLAYORDER=
